<svg xmlns="http://www.w3.org/2000/svg" id="ea61258a-e793-48f7-8624-3c5ca462ffd9" width="882.346" height="778.999" data-name="Layer 1" viewBox="0 0 882.346 778.999"><title>remotely</title><path fill="#e6e6e6" d="M501.18877,80.56067l3.46953-5.362a80.3872,80.3872,0,0,0-3.55952-8.33251l-2.24352,1.81205,1.77642-2.74534c-1.69294-3.3325-3.02505-5.43215-3.02505-5.43215s-6.95827,10.96511-9.283,22.57466l4.45222,6.88072-4.9288-3.981a32.52249,32.52249,0,0,0-.27041,4.0782c0,13.74959,4.49056,24.89583,10.03,24.89583s10.03-11.14624,10.03-24.89583a42.818,42.818,0,0,0-2.29454-12.84723Z" transform="translate(-158.82681 -60.50072)"/><path fill="#e6e6e6" d="M525.74665,92.48079l6.24485-1.33818a80.386,80.386,0,0,0,3.375-8.40894l-2.86772-.30508,3.19738-.68514c1.15933-3.55352,1.70207-5.98014,1.70207-5.98014s-12.67374,2.83326-22.52676,9.39864l-1.71721,8.01359-.67022-6.30016a32.52414,32.52414,0,0,0-3.07493,2.69252c-9.72242,9.72242-14.4287,20.77932-10.51174,24.69627s14.97385-.78932,24.69627-10.51174a42.81769,42.81769,0,0,0,7.46188-10.70686Z" transform="translate(-158.82681 -60.50072)"/><path fill="#e6e6e6" d="M528.02764,145.68472c-14.48118.92631-30.25994-.05387-47.04589,0V107.25287c14.79122,2.30262,30.56472,2.06615,47.04589,0Z" transform="translate(-158.82681 -60.50072)"/><path fill="#e6e6e6" d="M631.62843,175.65222l2.26263-3.49679a52.42392,52.42392,0,0,0-2.32132-5.434l-1.46308,1.18172,1.15847-1.79036c-1.104-2.17326-1.97276-3.54253-1.97276-3.54253a50.2414,50.2414,0,0,0-6.05381,14.72187l2.90347,4.4872-3.21427-2.59615a21.20987,21.20987,0,0,0-.17635,2.65956c0,8.96667,2.92849,16.2356,6.541,16.2356s6.541-7.26893,6.541-16.2356a27.92338,27.92338,0,0,0-1.49636-8.37821Z" transform="translate(-158.82681 -60.50072)"/><path fill="#e6e6e6" d="M647.64364,183.42582l4.07252-.87269a52.42092,52.42092,0,0,0,2.201-5.48381l-1.87016-.199,2.08514-.44681c.756-2.31739,1.11-3.89989,1.11-3.89989a50.241,50.241,0,0,0-14.69062,6.12924l-1.11987,5.226-.43707-4.10859a21.20826,21.20826,0,0,0-2.00529,1.7559c-6.3404,6.34039-9.40955,13.55105-6.85515,16.10546s9.76507-.51475,16.10546-6.85515a27.92314,27.92314,0,0,0,4.8662-6.98238Z" transform="translate(-158.82681 -60.50072)"/><path fill="#e6e6e6" d="M649.13117,218.12229c-9.44378.60408-19.73376-.03513-30.68057,0v-25.063a110.58424,110.58424,0,0,0,30.68057,0Z" transform="translate(-158.82681 -60.50072)"/><path fill="#e6e6e6" d="M643.29962,292.39872c-8.33889.53341-17.425-.031-27.091,0V270.268a97.6466,97.6466,0,0,0,27.091,0Z" transform="translate(-158.82681 -60.50072)"/><rect width="364.547" height="10.183" x="167.508" y="82.481" fill="#e6e6e6"/><rect width="364.547" height="10.183" x="167.508" y="154.78" fill="#e6e6e6"/><rect width="364.547" height="10.183" x="167.508" y="227.078" fill="#e6e6e6"/><circle cx="470.958" cy="197.548" r="20.366" fill="#e6e6e6"/><circle cx="470.958" cy="197.548" r="16.293" fill="#fff"/><circle cx="470.958" cy="197.548" r="4.073" fill="#e6e6e6"/><rect width="2.037" height="16.293" x="634.876" y="249.902" fill="#e6e6e6" transform="translate(735.11638 -438.34681) rotate(90)"/><rect width="2.037" height="16.293" x="628.767" y="243.793" fill="#e6e6e6" transform="translate(1100.74302 443.37693) rotate(180)"/><rect width="13.475" height="53.339" x="339.725" y="105.104" fill="#e6e6e6"/><rect width="13.475" height="6.176" x="339.725" y="113.526" fill="#ccc"/><rect width="13.475" height="6.176" x="339.725" y="140.476" fill="#ccc"/><rect width="13.475" height="53.339" x="318.951" y="105.104" fill="#e6e6e6"/><rect width="13.475" height="6.176" x="318.951" y="113.526" fill="#ccc"/><rect width="13.475" height="6.176" x="318.951" y="140.476" fill="#ccc"/><rect width="13.475" height="53.339" x="522.695" y="165.605" fill="#e6e6e6" transform="translate(-189.17144 194.36555) rotate(-26.3396)"/><rect width="13.475" height="6.176" x="515.969" y="175.601" fill="#ccc" transform="translate(-183.84194 189.97078) rotate(-26.3396)"/><rect width="13.475" height="6.176" x="527.926" y="199.753" fill="#ccc" transform="translate(-193.3166 197.7837) rotate(-26.3396)"/><rect width="13.475" height="53.339" x="219.567" y="177.403" fill="#e6e6e6"/><rect width="13.475" height="6.176" x="219.567" y="185.825" fill="#ccc"/><rect width="13.475" height="6.176" x="219.567" y="212.775" fill="#ccc"/><rect width="13.475" height="53.339" x="198.793" y="177.403" fill="#e6e6e6"/><rect width="13.475" height="6.176" x="198.793" y="185.825" fill="#ccc"/><rect width="13.475" height="6.176" x="198.793" y="212.775" fill="#ccc"/><rect width="13.475" height="53.339" x="402.537" y="237.903" fill="#e6e6e6" transform="translate(-233.72439 148.5586) rotate(-26.3396)"/><rect width="13.475" height="6.176" x="395.811" y="247.899" fill="#ccc" transform="translate(-228.39489 144.16384) rotate(-26.3396)"/><rect width="13.475" height="6.176" x="407.769" y="272.051" fill="#ccc" transform="translate(-237.86955 151.97676) rotate(-26.3396)"/><rect width="13.475" height="53.339" x="345.835" y="177.403" fill="#e6e6e6"/><rect width="13.475" height="6.176" x="345.835" y="185.825" fill="#ccc"/><rect width="13.475" height="6.176" x="345.835" y="212.775" fill="#ccc"/><rect width="13.475" height="53.339" x="325.061" y="177.403" fill="#e6e6e6"/><rect width="13.475" height="6.176" x="325.061" y="185.825" fill="#ccc"/><rect width="13.475" height="6.176" x="325.061" y="212.775" fill="#ccc"/><rect width="13.475" height="53.339" x="528.805" y="237.903" fill="#e6e6e6" transform="translate(-220.61527 204.58241) rotate(-26.3396)"/><rect width="13.475" height="6.176" x="522.079" y="247.899" fill="#ccc" transform="translate(-215.28577 200.18764) rotate(-26.3396)"/><rect width="13.475" height="6.176" x="534.036" y="272.051" fill="#ccc" transform="translate(-224.76043 208.00056) rotate(-26.3396)"/><rect width="53.556" height="53.556" x="449.987" y="32.646" fill="#e6e6e6"/><rect width="32.134" height="32.134" x="460.699" y="43.357" fill="#ccc"/><polygon fill="#e6e6e6" points="470 54.143 476.814 65.944 483.627 77.745 470 77.745 456.373 77.745 463.187 65.944 470 54.143"/><polygon fill="#e6e6e6" points="481.839 56.398 488.653 68.199 495.466 80 481.839 80 468.212 80 475.026 68.199 481.839 56.398"/><circle cx="486.631" cy="48.994" r="3.946" fill="#e6e6e6"/><rect width="53.556" height="53.556" x="179.123" y="32.646" fill="#e6e6e6"/><rect width="32.134" height="32.134" x="189.834" y="43.357" fill="#ccc"/><polygon fill="#e6e6e6" points="199.136 54.143 205.949 65.944 212.763 77.745 199.136 77.745 185.509 77.745 192.322 65.944 199.136 54.143"/><polygon fill="#e6e6e6" points="210.975 56.398 217.788 68.199 224.601 80 210.975 80 197.348 80 204.161 68.199 210.975 56.398"/><circle cx="215.766" cy="48.994" r="3.946" fill="#e6e6e6"/><path fill="#6c63ff" d="M230.32422,458.34544l3.46953-5.362a80.3871,80.3871,0,0,0-3.55953-8.33251l-2.24351,1.812,1.77642-2.74534c-1.69294-3.3325-3.02505-5.43215-3.02505-5.43215s-6.95827,10.96511-9.283,22.57466l4.45222,6.88072-4.92881-3.981a32.52438,32.52438,0,0,0-.27041,4.0782c0,13.74959,4.49057,24.89583,10.03,24.89583s10.03-11.14624,10.03-24.89583a42.818,42.818,0,0,0-2.29454-12.84723Z" transform="translate(-158.82681 -60.50072)"/><path fill="#6c63ff" d="M254.8821,470.26556l6.24485-1.33818a80.386,80.386,0,0,0,3.375-8.40894l-2.86772-.30508,3.19737-.68514c1.15934-3.55352,1.70208-5.98014,1.70208-5.98014s-12.67374,2.83326-22.52676,9.39864l-1.71721,8.01359-.67022-6.30016a32.52414,32.52414,0,0,0-3.07493,2.69252c-9.72243,9.72242-14.4287,20.77932-10.51175,24.69627s14.97385-.78932,24.69628-10.51174a42.818,42.818,0,0,0,7.46188-10.70686Z" transform="translate(-158.82681 -60.50072)"/><path fill="#3f3d56" d="M257.16309,523.46949c-14.48118.92631-30.25994-.05387-47.04589,0V485.03764c14.79122,2.30262,30.56472,2.06615,47.04589,0Z" transform="translate(-158.82681 -60.50072)"/><rect width="195.511" height="253.554" x="500.998" y="475.031" fill="#e6e6e6"/><rect width="10.183" height="240.316" x="92.664" y="488.269" fill="#e6e6e6"/><rect width="696.509" height="20.366" y="457.72" fill="#e6e6e6"/><rect width="20.366" height="20.366" x="87.573" y="478.086" fill="#e6e6e6"/><polygon fill="#3f3d56" points="614.155 489.796 613.009 494.379 584.497 494.379 582.779 489.796 510.162 489.796 510.162 536.638 687.344 536.638 687.344 489.796 614.155 489.796"/><polygon fill="#3f3d56" points="614.155 548.857 613.009 553.439 584.497 553.439 582.779 548.857 510.162 548.857 510.162 595.698 687.344 595.698 687.344 548.857 614.155 548.857"/><polygon fill="#3f3d56" points="614.155 607.918 613.009 612.5 584.497 612.5 582.779 607.918 510.162 607.918 510.162 654.759 687.344 654.759 687.344 607.918 614.155 607.918"/><polygon fill="#3f3d56" points="614.155 666.979 613.009 671.561 584.497 671.561 582.779 666.979 510.162 666.979 510.162 713.82 687.344 713.82 687.344 666.979 614.155 666.979"/><polygon fill="#e6e6e6" points="377.785 454.665 317.706 454.665 319.742 428.19 375.748 428.19 377.785 454.665"/><rect width="67.207" height="6.11" x="314.651" y="451.611" fill="#e6e6e6"/><path fill="#3f3d56" d="M621.63862,318.12753H392.01472a6.10973,6.10973,0,0,0-6.10973,6.10973V464.25183H627.74834V324.23726A6.10973,6.10973,0,0,0,621.63862,318.12753Z" transform="translate(-158.82681 -60.50072)"/><path fill="#e6e6e6" d="M385.905,464.25183V487.1633a6.10973,6.10973,0,0,0,6.10973,6.10973h229.6239a6.10973,6.10973,0,0,0,6.10972-6.10973V464.25183Z" transform="translate(-158.82681 -60.50072)"/><rect width="217.914" height="122.195" x="239.298" y="270.355" fill="#fff"/><circle cx="348.254" cy="418.007" r="6.11" fill="#3f3d56"/><path fill="#3f3d56" d="M1023.86229,787.5582c-22.25416,1.42352-46.50239-.08278-72.29843,0V728.49751c22.73061,3.53859,46.97076,3.17519,72.29843,0Z" transform="translate(-158.82681 -60.50072)"/><polygon fill="#3f3d56" points="831.432 673.3 825.322 673.3 827.359 553.949 829.395 553.949 831.432 673.3"/><polygon fill="#3f3d56" points="858.926 674.107 852.816 674.107 854.853 554.755 856.889 554.755 858.926 674.107"/><polygon fill="#3f3d56" points="806.993 674.107 800.883 674.107 802.92 554.755 804.956 554.755 806.993 674.107"/><path fill="#e6e6e6" d="M995.35023,538.07769l9.8628-15.24249a228.51376,228.51376,0,0,0-10.11861-23.68669l-6.3776,5.1511,5.0498-7.80416c-4.81251-9.47323-8.59926-15.44187-8.59926-15.44187s-19.78017,31.17033-26.3886,64.17264L971.435,564.78593l-14.011-11.31664a92.45186,92.45186,0,0,0-.76869,11.593c0,39.08574,12.76527,70.771,28.51206,70.771s28.512-31.68526,28.512-70.771c0-12.117-2.74124-24.794-6.52266-36.52063Z" transform="translate(-158.82681 -60.50072)"/><path fill="#6c63ff" d="M1022.844,540.11427l9.8628-15.2425a228.5147,228.5147,0,0,0-10.11861-23.68669l-6.3776,5.15111,5.0498-7.80416c-4.81251-9.47323-8.59926-15.44188-8.59926-15.44188s-19.78017,31.17034-26.3886,64.17264l12.65626,19.55972-14.011-11.31664a92.45186,92.45186,0,0,0-.76869,11.593c0,39.08574,12.76527,70.771,28.51206,70.771s28.51206-31.68526,28.51206-70.771c0-12.117-2.74125-24.794-6.52267-36.52064Z" transform="translate(-158.82681 -60.50072)"/><path fill="#6c63ff" d="M970.91133,540.11427l9.8628-15.2425a228.51678,228.51678,0,0,0-10.11862-23.68669l-6.3776,5.15111,5.0498-7.80416c-4.8125-9.47323-8.59926-15.44188-8.59926-15.44188s-19.78017,31.17034-26.3886,64.17264l12.65626,19.55972-14.011-11.31664a92.45186,92.45186,0,0,0-.76869,11.593c0,39.08574,12.76527,70.771,28.51206,70.771s28.51206-31.68526,28.51206-70.771c0-12.117-2.74125-24.794-6.52266-36.52064Z" transform="translate(-158.82681 -60.50072)"/><rect width="58.756" height="3.373" x="309.964" y="304.848" fill="#3f3d56"/><rect width="90.732" height="3.373" x="309.964" y="317.151" fill="#6c63ff"/><rect width="73.945" height="3.373" x="309.964" y="328.742" fill="#6c63ff"/><rect width="43.168" height="3.373" x="309.964" y="340.29" fill="#3f3d56"/><rect width="65.151" height="3.373" x="309.964" y="351.837" fill="#3f3d56"/><rect width="7.195" height="7.195" x="283.184" y="303.649" fill="#3f3d56"/><rect width="7.195" height="7.195" x="283.184" y="315.24" fill="#6c63ff"/><rect width="7.195" height="7.195" x="283.184" y="326.831" fill="#6c63ff"/><rect width="7.195" height="7.195" x="283.184" y="338.423" fill="#3f3d56"/><rect width="7.195" height="7.195" x="283.184" y="350.014" fill="#3f3d56"/><path fill="#6c63ff" d="M605.94216,358.96335H575.109a107.84044,107.84044,0,0,1,0-36.76267h30.8332A66.14839,66.14839,0,0,0,605.94216,358.96335Z" transform="translate(-158.82681 -60.50072)"/><path fill="#2f2e41" d="M381.59071,432.64519l-12.68484-3.092a32.65651,32.65651,0,0,1-32.05067-39.12409v0a42.68467,42.68467,0,0,1,42.631-42.73825h.00008a42.68468,42.68468,0,0,1,42.73825,42.631v.00006C429.41674,415.35014,406.89108,438.81238,381.59071,432.64519Z" transform="translate(-158.82681 -60.50072)"/><circle cx="236.62" cy="345.243" r="31.364" fill="#ffb8b8"/><path fill="#ffb8b8" d="M374.992,422.10773s-9.54547,32.72733-15,35.4546,43.63644,6.8182,43.63644,6.8182-1.36364-31.36369,1.36364-34.091S374.992,422.10773,374.992,422.10773Z" transform="translate(-158.82681 -60.50072)"/><path fill="#2f2e41" d="M424.083,623.92626s61.36374-5.45456,69.54557,15S488.174,780.74471,488.174,780.74471H462.26485V681.19908s-110.4725-31.40179-110.4725-42.31089S424.083,623.92626,424.083,623.92626Z" transform="translate(-158.82681 -60.50072)"/><path fill="#2f2e41" d="M484.08307,775.29015l13.63639,5.45456s16.36366-1.36364,9.54547,10.90911A27.00366,27.00366,0,0,1,488.174,805.29021s-25.90914,9.54547-27.27278,0,6.8182-28.63642,6.8182-28.63642Z" transform="translate(-158.82681 -60.50072)"/><path fill="#2f2e41" d="M389.992,623.92626s61.36374-5.45456,69.54557,15S454.083,780.74471,454.083,780.74471H428.17388V681.19908s-78.4181-18.164-78.4181-29.07315c0-5.12492-5.34348-31.171,4.07315-36.65836C364.45693,609.27432,389.992,623.92626,389.992,623.92626Z" transform="translate(-158.82681 -60.50072)"/><path fill="#2f2e41" d="M449.9921,775.29015l13.63639,5.45456s16.36367-1.36364,9.54547,10.90911A27.00366,27.00366,0,0,1,454.083,805.29021s-25.90914,9.54547-27.27277,0,6.81819-28.63642,6.81819-28.63642Z" transform="translate(-158.82681 -60.50072)"/><path fill="#575a89" d="M361.35559,453.47142l40.98018,4.45436a30.18224,30.18224,0,0,1,26.26893,23.76669L444.53755,557.108s5.45455,75.00013-5.45456,79.091-25.90913-16.36366-46.36371-13.63638-47.04554,8.86365-47.04554,8.86365S341.451,497.179,340.901,486.19875C339.80142,464.24769,361.35559,453.47142,361.35559,453.47142Z" transform="translate(-158.82681 -60.50072)"/><path fill="#ffb8b8" d="M458.42733,627.82255l16.82365,9.9078s30.18279-4.33064,29.24058,6.278-33.8887,8.55886-33.8887,8.55886l-20.275-12.493Z" transform="translate(-158.82681 -60.50072)"/><circle cx="175.743" cy="299.475" r="20.26" fill="#2f2e41"/><path fill="#2f2e41" d="M353.26293,349.08471a20.2502,20.2502,0,0,0-24.24652-19.836,20.25023,20.25023,0,1,1,12.63025,38.16451A20.243,20.243,0,0,0,353.26293,349.08471Z" transform="translate(-158.82681 -60.50072)"/><path fill="#2f2e41" d="M370.64347,360.57471l27.313-5.02907,21.00491,13.16494a31.86273,31.86273,0,0,1,14.6776,31.09515l-21.0372-5.33225-4.71074-11.81208-5.61047,9.196-29.33406,37.75029-16.46978-10.48815-14.68292-23.00931Z" transform="translate(-158.82681 -60.50072)"/><path fill="#575a89" d="M393.13569,465.07123l13.63639-6.8182s28.63641,4.09092,34.091,23.18186,30,151.3639,30,151.3639L447.68124,643.7079l-32.72733-80.45468Z" transform="translate(-158.82681 -60.50072)"/><polygon points="245.917 458.23 259.565 511.205 283.767 570.701 282.928 572.761 254.063 512.199 245.917 458.23" opacity=".2"/><polygon fill="#3f3d56" points="144.084 750.379 139.271 748.721 185.896 610.231 192.636 612.553 144.084 750.379"/><polygon fill="#3f3d56" points="322.291 750.379 327.105 748.721 280.479 610.231 273.74 612.553 322.291 750.379"/><polygon fill="#3f3d56" points="223.77 778.981 228.861 778.999 230.443 617.107 223.315 617.082 223.77 778.981"/><path fill="#6c63ff" d="M291.12655,589.35709l13.96582,56.44513a44.82625,44.82625,0,0,0,32.64214,32.72145l.00008,0a238.26046,238.26046,0,0,0,118.54694-.7638l20.8512-5.49922c12.11558-3.19531,21.22652-13.60111,22.0886-26.10127a25.68469,25.68469,0,0,0-2.323-12.8718q-.12219-.25966-.24559-.51476a34.06444,34.06444,0,0,0-29.59817-19.13845l-22.08892-.71254L364.521,577.28177s-27.66705-14.0531-50.4117-15.62629C299.08852,560.61654,287.51024,574.74121,291.12655,589.35709Z" transform="translate(-158.82681 -60.50072)"/><rect width="79.426" height="107.939" x="543.257" y="351.309" fill="#e6e6e6"/><rect width="61.097" height="83.03" x="552.421" y="363.764" fill="#fff"/><rect width="29.602" height="3.373" x="576.467" y="385.492" fill="#3f3d56"/><rect width="7.195" height="7.195" x="559.87" y="383.625" fill="#3f3d56"/><rect width="29.602" height="3.373" x="576.467" y="399.748" fill="#3f3d56"/><rect width="7.195" height="7.195" x="559.87" y="397.881" fill="#3f3d56"/><rect width="29.602" height="3.373" x="576.467" y="414.004" fill="#3f3d56"/><rect width="7.195" height="7.195" x="559.87" y="412.137" fill="#3f3d56"/><rect width="6.11" height="6.11" x="579.915" y="354.364" fill="#3f3d56" rx="3.055"/></svg>